<?xml version="1.0" standalone="no"?>
<!DOCTYPE svg PUBLIC "-//W3C//DTD SVG 20010904//EN"
 "http://www.w3.org/TR/2001/REC-SVG-20010904/DTD/svg10.dtd">
<svg version="1.0" xmlns="http://www.w3.org/2000/svg"
 width="820.000000pt" height="512.000000pt" viewBox="0 0 820.000000 512.000000"
 preserveAspectRatio="xMidYMid meet">

<g transform="translate(0.000000,512.000000) scale(0.100000,-0.100000)"
fill="#000000" stroke="none">
<path d="M2885 4027 c-109 -37 -186 -103 -232 -202 -24 -52 -28 -72 -28 -150
0 -158 -13 -141 508 -662 l451 -453 -451 -452 c-521 -522 -508 -505 -508 -663
0 -78 4 -98 28 -150 36 -78 104 -146 181 -182 53 -24 73 -28 151 -28 158 0
141 -13 663 508 l452 451 453 -451 c521 -521 504 -508 662 -508 80 0 97 3 155
31 82 40 134 92 174 174 28 58 31 75 31 155 0 158 13 141 -508 663 l-451 452
451 453 c521 521 508 504 508 662 0 78 -4 98 -28 151 -36 77 -104 145 -182
181 -52 24 -72 28 -150 28 -158 0 -141 13 -662 -508 l-453 -451 -452 451
c-511 509 -503 504 -648 510 -44 2 -91 -3 -115 -10z"/>
</g>
</svg>
